<?xml version="1.0" encoding="UTF-8" standalone="no"?><!DOCTYPE svg PUBLIC "-//W3C//DTD SVG 1.1//EN" "http://www.w3.org/Graphics/SVG/1.1/DTD/svg11.dtd"><svg width="100%" height="100%" viewBox="0 0 1667 1355" version="1.1" xmlns="http://www.w3.org/2000/svg" xmlns:xlink="http://www.w3.org/1999/xlink" xml:space="preserve" xmlns:serif="http://www.serif.com/" style="fill-rule:evenodd;clip-rule:evenodd;stroke-linejoin:round;stroke-miterlimit:2;"><rect x="0" y="0" width="1666.67" height="1354.17" style="fill:none;"/><path d="M524.133,1354c628.934,0 972.934,-520.969 972.934,-972.752c0,-14.797 0,-29.527 -1,-44.191c66.921,-48.397 124.691,-108.323 170.6,-176.967c-62.408,27.648 -128.612,45.78 -196.4,53.79c71.363,-42.715 124.815,-109.95 150.333,-189.098c-67.122,39.822 -140.558,67.888 -217.133,82.984c-64.656,-68.738 -154.953,-107.766 -249.33,-107.766c-187.762,0 -342.267,154.476 -342.267,342.203c0,26.043 2.974,52.002 8.863,77.372c-274.803,-13.774 -531.188,-143.725 -704.733,-357.2c-90.246,155.331 -43.552,356.624 105.867,456.381c-54.415,-1.612 -107.651,-16.291 -155.2,-42.792l0,4.333c0.044,162.125 115.388,303.034 274.333,335.137c-50.34,13.726 -103.163,15.733 -154.4,5.866c44.685,138.92 173.537,234.681 319.467,237.422c-121.061,95.125 -270.694,146.794 -424.667,146.639c-27.206,-0.052 -54.386,-1.699 -81.4,-4.932c156.359,100.322 338.347,153.552 524.133,153.304" style="fill-rule:nonzero;"/></svg>